Coordinates
version=1
nRows=14
nColumns=40
inDegrees=yes

Units are S.I. units (second, meters, Newtons, ...)
Angles are in degrees.

endheader
time	pelvis_tilt	pelvis_list	pelvis_rotation	pelvis_tx	pelvis_ty	pelvis_tz	hip_flexion_r	hip_adduction_r	hip_rotation_r	knee_angle_r	knee_angle_r_beta	ankle_angle_r	subtalar_angle_r	mtp_angle_r	hip_flexion_l	hip_adduction_l	hip_rotation_l	knee_angle_l	knee_angle_l_beta	ankle_angle_l	subtalar_angle_l	mtp_angle_l	lumbar_extension	lumbar_bending	lumbar_rotation	arm_flex_r	arm_add_r	arm_rot_r	elbow_flex_r	pro_sup_r	wrist_flex_r	wrist_dev_r	arm_flex_l	arm_add_l	arm_rot_l	elbow_flex_l	pro_sup_l	wrist_flex_l	wrist_dev_l
     47.06000000	     -6.23272222	     -5.76994666	     -2.04544888	      1.06939941	      0.91140792	      0.42702597	     10.12540550	     -6.26391162	     -4.53815639	     36.09966532	     36.09966532	     11.81565986	      0.30011172	    -16.80947132	     25.38912489	     -6.86919261	     -1.61654105	     35.17485860	     35.17485860	     17.77441186	    -17.20499884	      7.80310278	     -9.36383973	      7.41041485	      3.21309559	     22.14707020	    -12.55469923	    -15.93536921	     29.29785154	     45.45135970	      0.00000000	      0.00000000	     19.43666222	    -17.86279263	      9.26555933	     37.83405980	     44.94246552	      0.00000000	      0.00000000
     47.08092857	     -6.29912067	     -5.84416674	     -2.57924890	      1.06783392	      0.91045351	      0.42450192	     13.05079273	     -6.26642306	     -3.18677830	     41.06342540	     41.06342540	     10.26076175	     -2.39812289	    -16.82478140	     25.40135518	     -6.93710533	     -1.99194776	     35.64135244	     35.64135244	     18.22724927	    -17.32846978	      7.75327135	     -9.56683902	      7.65194664	      2.95551885	     18.46859855	    -12.17540216	    -15.84244810	     27.88271235	     45.50040943	      0.00000000	      0.00000000	     21.23048892	    -18.42843449	      8.60036163	     39.59632272	     45.07409444	      0.00000000	      0.00000000
     47.10185714	     -6.37773834	     -5.82461636	     -3.16532382	      1.06630667	      0.90955804	      0.42209818	     15.93901778	     -6.25610699	     -1.85019182	     45.83433596	     45.83433596	      9.21870356	     -4.23368015	    -14.92839003	     25.36155868	     -6.93267194	     -2.46649316	     36.03763696	     36.03763696	     18.83275762	    -17.35041036	      8.06150720	     -9.80750985	      7.80392686	      2.49643198	     14.53092116	    -11.84507133	    -14.87747873	     27.07046517	     45.52988713	      0.00000000	      0.00000000	     22.65023325	    -19.13876680	      7.06015236	     42.20201325	     45.37829632	      0.00000000	      0.00000000
     47.12278571	     -6.42345007	     -5.75256822	     -3.74950941	      1.06489440	      0.90895614	      0.41994955	     18.53215724	     -6.20836178	     -0.66138241	     49.89669107	     49.89669107	      7.76161245	     -5.83363514	    -14.32014871	     25.17123689	     -6.87176946	     -2.93585783	     36.23001989	     36.23001989	     19.19722312	    -17.47477485	      7.93305784	     -9.98820979	      7.89289822	      2.06273461	     10.93559320	    -11.45294577	    -14.75768991	     25.53886632	     45.56573195	      0.00000000	      0.00000000	     24.60164499	    -19.92683645	      6.50592837	     43.43830066	     45.47613210	      0.00000000	      0.00000000
     47.14371429	     -6.43940973	     -5.87746886	     -4.37162183	      1.06362178	      0.90901676	      0.41835159	     20.96508326	     -5.68628777	      0.59421522	     53.65488932	     53.65488932	      8.39228463	     -6.32614858	     -7.67340712	     24.84855618	     -7.06888493	     -3.43337424	     36.27558814	     36.27558814	     19.56275671	    -17.49056934	      8.06320144	    -10.30354499	      8.17652433	      2.10293129	      6.74092681	    -11.45247021	    -13.54177319	     24.88461595	     45.58247620	      0.00000000	      0.00000000	     26.20528171	    -20.34519587	      4.78194360	     46.28095284	     45.79344472	      0.00000000	      0.00000000
     47.16464286	     -6.46508685	     -5.83843479	     -4.98149956	      1.06247016	      0.90958206	      0.41717788	     23.01005474	     -5.33359964	      1.58081741	     56.21585700	     56.21585700	      7.35742094	     -7.35386797	     -7.13813362	     24.36611338	     -7.09383276	     -3.97927002	     36.00291991	     36.00291991	     19.74476924	    -17.55246621	      8.08223951	    -10.44923544	      8.26020592	      1.66758113	      3.36716556	    -11.12804042	    -13.47496411	     23.53126065	     45.61545310	      0.00000000	      0.00000000	     28.05960996	    -21.24605021	      4.20983705	     47.51492433	     45.88533048	      0.00000000	      0.00000000
     47.18557143	     -6.53491400	     -5.89494723	     -5.67602163	      1.06142522	      0.91088837	      0.41672121	     24.82211298	     -4.68791977	      2.54597508	     57.92041807	     57.92041807	      6.73482723	     -8.27973019	     -6.16011507	     23.71261413	     -7.25975331	     -4.55161748	     35.36573723	     35.36573723	     19.85579694	    -17.55554338	      8.16644736	    -10.57791221	      8.42805784	      1.71785004	     -0.06946264	    -10.96891054	    -13.43353923	     22.31106517	     45.64666112	      0.00000000	      0.00000000	     29.81845749	    -21.81553783	      3.51835471	     49.29383919	     45.99272863	      0.00000000	      0.00000000
     47.20650000	     -6.54050480	     -6.07320276	     -6.40325455	      1.06061682	      0.91299433	      0.41692092	     26.35586105	     -3.94752903	      3.16388658	     58.97598824	     58.97598824	      7.71892746	     -7.95791389	     -1.76074071	     22.80275263	     -7.61216853	     -5.24878552	     34.43273207	     34.43273207	     19.60130654	    -17.51176101	      7.75008938	    -10.78743345	      8.66905745	      1.56707267	     -3.86554616	    -10.89459803	    -13.29650365	     23.32244538	     45.64102160	      0.00000000	      0.00000000	     30.45139179	    -22.44380770	      1.27031100	     53.43719619	     46.29013779	      0.00000000	      0.00000000
     47.22742857	     -6.61799473	     -6.13720097	     -7.18239929	      1.05982264	      0.91563827	      0.41774941	     27.60606002	     -3.23525049	      3.73412033	     58.84224889	     58.84224889	      7.70322646	     -8.27748246	     -1.47310499	     21.77199075	     -7.83324503	     -5.96354867	     33.14967760	     33.14967760	     19.43979567	    -17.44526420	      7.94289185	    -10.77798433	      8.73774585	      1.55152291	     -6.71242849	    -10.77609120	    -13.18799759	     22.42244582	     45.66741562	      0.00000000	      0.00000000	     32.01822202	    -23.04398915	      0.52349806	     55.05113887	     46.39797000	      0.00000000	      0.00000000
     47.24835714	     -6.77097295	     -6.20377822	     -7.99633304	      1.05903627	      0.91865615	      0.41914213	     28.64662560	     -2.53332386	      4.08634058	     57.75045862	     57.75045862	      7.81792994	     -8.28234682	     -1.69179883	     20.66727796	     -8.09671320	     -6.79237878	     31.58114805	     31.58114805	     18.98570638	    -17.27658641	      7.74110469	    -10.73909994	      8.77973051	      1.58246801	     -9.63010325	    -10.67389494	    -13.14305543	     22.58730092	     45.66968214	      0.00000000	      0.00000000	     33.03914321	    -23.53268751	     -0.81142366	     57.83329558	     46.57159099	      0.00000000	      0.00000000
     47.26928571	     -6.90500542	     -6.21644143	     -8.83464804	      1.05836341	      0.92203133	      0.42108088	     29.36816179	     -1.92035920	      4.23075789	     55.72312680	     55.72312680	      8.11336796	     -8.01862088	     -1.96988708	     19.35796556	     -8.29332456	     -7.73539300	     29.69923273	     29.69923273	     18.59180382	    -17.04017383	      8.05290654	    -10.56863624	      8.71357985	      1.39365691	    -11.84849633	    -10.60222182	    -13.16738105	     22.27062129	     45.67692425	      0.00000000	      0.00000000	     34.23834678	    -24.26693559	     -1.55219496	     59.31410387	     46.66679453	      0.00000000	      0.00000000
     47.29021429	     -7.09645885	     -6.25738850	     -9.68710925	      1.05764284	      0.92521906	      0.42342301	     29.71046149	     -1.31788814	      4.15665859	     52.52959834	     52.52959834	      7.50379153	     -7.89334289	     -5.42349862	     18.05961135	     -8.53441189	     -8.74182618	     27.69502930	     27.69502930	     17.53970070	    -16.90174346	      6.73748512	    -10.53042533	      8.68090446	      1.07682882	    -14.54266843	    -10.64082875	    -12.94032712	     24.62131160	     45.60622168	      0.00000000	      0.00000000	     34.27742706	    -24.91818394	     -4.20445663	     63.63690628	     46.97114694	      0.00000000	      0.00000000
     47.31114286	     -7.28695965	     -6.27669736	    -10.52858500	      1.05698132	      0.92830248	      0.42613473	     29.78689472	     -0.79677611	      3.84869371	     48.70302311	     48.70302311	      7.82376641	     -6.66022664	     -5.96568646	     16.75801186	     -8.71590088	     -9.67515157	     25.73880294	     25.73880294	     17.14376052	    -16.54269085	      7.04676113	    -10.32179288	      8.57082993	      1.32160412	    -16.29721390	    -10.58017657	    -12.78306130	     24.36211927	     45.60465318	      0.00000000	      0.00000000	     35.63249070	    -25.20215579	     -4.77173205	     65.29625428	     47.05748793	      0.00000000	      0.00000000
     47.33207143	     -7.51018500	     -6.28749006	    -11.30222982	      1.05637577	      0.93082318	      0.42904234	     29.42684909	     -0.32577755	      3.30393544	     43.89806970	     43.89806970	      7.24052787	     -5.39415087	     -8.64616241	     15.56222599	     -8.89523540	    -10.62824881	     23.86294838	     23.86294838	     16.26482020	    -16.30729107	      6.13681972	    -10.17625946	      8.50510954	      1.23597452	    -18.29755902	    -10.68322771	    -12.23884812	     26.36187288	     45.51770466	      0.00000000	      0.00000000	     36.03740500	    -25.57569730	     -6.58679553	     68.65063250	     47.27941863	      0.00000000	      0.00000000
